<svg width="300" height="300" viewBox="0 0 300 300" fill="none" xmlns="http://www.w3.org/2000/svg">
<path d="M0 50C0 22.3858 22.3858 0 50 0H250C277.614 0 300 22.3858 300 50V250C300 277.614 277.614 300 250 300H50C22.3858 300 0 277.614 0 250V50Z" fill="white"/>
<path d="M49.6689 0C22.2375 0 0 22.3858 0 50L57.4958 50L170.039 194.043H172.412V50H241.39V300H250.331C277.762 300 300 277.614 300 250V50C300 22.3858 277.762 0 250.331 0H49.6689Z" fill="#06C000"/>
<path d="M182.745 300L68.9456 155.713H67.1304V300H182.745Z" fill="#06C000"/>
</svg>
