<svg width="1200" height="300" viewBox="0 0 1200 300" fill="none" xmlns="http://www.w3.org/2000/svg">
<path d="M900 50C900 22.3858 922.386 0 950 0H1150C1177.61 0 1200 22.3858 1200 50V250C1200 277.614 1177.61 300 1150 300H950C922.386 300 900 277.614 900 250V50Z" fill="white"/>
<path d="M950 0C922.386 0 900 22.3858 900 50L1145 50V99.0723H984.926V150.342H1132.48V199.536H984.926V250.928H1145V300H1150C1177.61 300 1200 277.614 1200 250V50C1200 22.3858 1177.61 0 1150 0H950Z" fill="#2B2B2B"/>
<path d="M600 50C600 22.3858 622.386 0 650 0H850C877.614 0 900 22.3858 900 50V250C900 277.614 877.614 300 850 300H650C622.386 300 600 277.614 600 250V50Z" fill="white"/>
<path d="M650 0C622.386 0 600 22.3858 600 50L690.033 50V230.909H845V300H850C877.614 300 900 277.614 900 250V50C900 22.3858 877.614 0 850 0H650Z" fill="#2B2B2B"/>
<path d="M422.5 300C397.032 300 375.142 294.795 356.83 284.385C338.623 273.87 324.574 259.253 314.681 240.536C304.894 221.714 300 199.895 300 175.079C300 150.158 304.894 128.339 314.681 109.621C324.574 90.7992 338.623 76.183 356.83 65.7729C375.142 55.2576 397.032 50 422.5 50C447.968 50 469.806 55.2576 488.012 65.7729C506.324 76.183 520.374 90.7992 530.161 109.621C540.054 128.339 545 150.158 545 175.079C545 199.895 540.054 221.714 530.161 240.536C520.374 259.253 506.324 273.87 488.012 284.385C469.806 294.795 447.968 300 422.5 300ZM422.974 241.798C432.235 241.798 440.075 238.959 446.495 233.281C452.915 227.603 457.808 219.716 461.176 209.621C464.649 199.527 466.385 187.855 466.385 174.606C466.385 161.146 464.649 149.369 461.176 139.274C457.808 129.18 452.915 121.293 446.495 115.615C440.075 109.937 432.235 107.098 422.974 107.098C413.397 107.098 405.293 109.937 398.663 115.615C392.138 121.293 387.139 129.18 383.666 139.274C380.299 149.369 378.615 161.146 378.615 174.606C378.615 187.855 380.299 199.527 383.666 209.621C387.139 219.716 392.138 227.603 398.663 233.281C405.293 238.959 413.397 241.798 422.974 241.798Z" fill="white"/>
<path d="M350 0C322.386 0 300 22.3858 300 50V164.522C301.205 143.948 305.997 125.648 314.378 109.621C324.27 90.7992 338.32 76.183 356.526 65.7729C374.838 55.2576 396.728 50 422.197 50C447.665 50 469.502 55.2576 487.709 65.7729C506.021 76.183 520.07 90.7992 529.858 109.621C539.75 128.339 544.697 150.158 544.697 175.079C544.697 199.895 539.75 221.714 529.858 240.536C520.07 259.253 506.021 273.87 487.709 284.385C469.502 294.795 447.665 300 422.197 300H550C577.614 300 600 277.614 600 250V50C600 22.3858 577.614 0 550 0H350Z" fill="#2B2B2B"/>
<path d="M446.191 233.281C439.772 238.959 431.931 241.798 422.67 241.798C413.093 241.798 404.99 238.959 398.36 233.281C391.835 227.603 386.836 219.716 383.363 209.621C379.995 199.527 378.311 187.855 378.311 174.606C378.311 161.146 379.995 149.369 383.363 139.274C386.836 129.18 391.835 121.293 398.36 115.615C404.99 109.937 413.093 107.098 422.67 107.098C431.931 107.098 439.772 109.937 446.191 115.615C452.611 121.293 457.505 129.18 460.872 139.274C464.345 149.369 466.082 161.146 466.082 174.606C466.082 187.855 464.345 199.527 460.872 209.621C457.505 219.716 452.611 227.603 446.191 233.281Z" fill="#2B2B2B"/>
<path d="M0 50C0 22.3858 22.3858 0 50 0H250C277.614 0 300 22.3858 300 50V250C300 277.614 277.614 300 250 300H50C22.3858 300 0 277.614 0 250V50Z" fill="white"/>
<path d="M49.6689 0C22.2375 0 0 22.3858 0 50L57.4958 50L170.039 194.043H172.412V50H241.39V300H250.331C277.762 300 300 277.614 300 250V50C300 22.3858 277.762 0 250.331 0H49.6689Z" fill="#2B2B2B"/>
<path d="M182.745 300L68.9456 155.713H67.1304V300H182.745Z" fill="#2B2B2B"/>
</svg>
